# xmcd
#
# Track frame offsets: 
#        150
#        15084
#        29167
#        44893
#        60148
#        81105
#        98244
#        119562
#        139216
#        154355
#        171223
#        186015
#        206533
#        226896
#        245041
#        262072
#
# Disc length: 3762 seconds
#
# Revision: 0
# Processed by: cddbd v1.5.2PL0 Copyright (c) Steve Scherf et al.
# Submitted via: ExactAudioCopyFreeDBPlugin 1.0
#
DISCID=e10eb010
DTITLE=みなみらんぼう - みなみらんぼう 全曲集 2014
DYEAR=2013
DGENRE=
TTITLE0=ウイスキーの小瓶
TTITLE1=ウイスキー・ドリーム
TTITLE2=コートにスミレを
TTITLE3=19才の頃の別れ話
TTITLE4=向こう岸に行きたい
TTITLE5=嗚呼あけぼの荘
TTITLE6=都会
TTITLE7=途上にて
TTITLE8=道程
TTITLE9=回転木馬
TTITLE10=山遊歌
TTITLE11=もしもある日俺が
TTITLE12=頂
TTITLE13=少年の夏
TTITLE14=武蔵野情話
TTITLE15=男と女 (昭和編)
EXTD=
EXTT0=
EXTT1=
EXTT2=
EXTT3=
EXTT4=
EXTT5=
EXTT6=
EXTT7=
EXTT8=
EXTT9=
EXTT10=
EXTT11=
EXTT12=
EXTT13=
EXTT14=
EXTT15=
PLAYORDER=
